<svg width="1440" height="980" viewBox="0 0 1440 980" fill="none" xmlns="http://www.w3.org/2000/svg">
  <rect width="1440" height="980" fill="#F5F8FB"/>
  <rect x="48" y="40" width="1344" height="900" rx="28" fill="#FFFFFF" stroke="#E5EBF2"/>
  <text x="96" y="108" fill="#2A3850" font-family="Trebuchet MS, Segoe UI, sans-serif" font-size="34" font-weight="700">Cadastro de Cliente</text>
  <text x="96" y="142" fill="#708096" font-family="Trebuchet MS, Segoe UI, sans-serif" font-size="18">Formulario inspirado na tela administrativa da aplicacao</text>

  <rect x="1098" y="72" width="110" height="50" rx="14" fill="#FFFFFF" stroke="#DDE5ED"/>
  <text x="1122" y="103" fill="#2F7F4B" font-family="Trebuchet MS, Segoe UI, sans-serif" font-size="16" font-weight="700">Cancelar</text>
  <rect x="1224" y="72" width="110" height="50" rx="14" fill="#33B05A"/>
  <text x="1263" y="103" fill="#FFFFFF" font-family="Trebuchet MS, Segoe UI, sans-serif" font-size="16" font-weight="700">Salvar</text>

  <text x="96" y="200" fill="#2A3850" font-family="Trebuchet MS, Segoe UI, sans-serif" font-size="22" font-weight="700">Dados cadastrais</text>
  <g>
    <rect x="96" y="226" width="380" height="54" rx="14" fill="#FFFFFF" stroke="#DDE5ED"/>
    <rect x="494" y="226" width="280" height="54" rx="14" fill="#FFFFFF" stroke="#DDE5ED"/>
    <rect x="792" y="226" width="250" height="54" rx="14" fill="#FFFFFF" stroke="#DDE5ED"/>
    <rect x="96" y="304" width="280" height="54" rx="14" fill="#FFFFFF" stroke="#DDE5ED"/>
    <rect x="394" y="304" width="260" height="54" rx="14" fill="#FFFFFF" stroke="#DDE5ED"/>
    <rect x="672" y="304" width="210" height="54" rx="14" fill="#FFFFFF" stroke="#DDE5ED"/>
  </g>

  <g fill="#7A8BA0" font-family="Trebuchet MS, Segoe UI, sans-serif" font-size="14" font-weight="700">
    <text x="96" y="220">NOME</text>
    <text x="494" y="220">FANTASIA</text>
    <text x="792" y="220">CODIGO</text>
    <text x="96" y="298">TIPO DA PESSOA</text>
    <text x="394" y="298">CPF/CNPJ</text>
    <text x="672" y="298">STATUS</text>
  </g>

  <g fill="#334257" font-family="Trebuchet MS, Segoe UI, sans-serif" font-size="16">
    <text x="116" y="259">Pedro Henrique Horvat Bandeira</text>
    <text x="514" y="259">HOPE30026</text>
    <text x="812" y="259">30026</text>
    <text x="116" y="337">Pessoa Fisica</text>
    <text x="414" y="337">471.186.068-12</text>
    <text x="692" y="337">Ativo</text>
  </g>

  <text x="96" y="430" fill="#2A3850" font-family="Trebuchet MS, Segoe UI, sans-serif" font-size="22" font-weight="700">Endereco</text>
  <rect x="96" y="448" width="58" height="8" rx="4" fill="#33B05A"/>
  <text x="96" y="486" fill="#2A3850" font-family="Trebuchet MS, Segoe UI, sans-serif" font-size="16" font-weight="700">Geral</text>
  <text x="164" y="486" fill="#7A8BA0" font-family="Trebuchet MS, Segoe UI, sans-serif" font-size="16">Cobranca</text>

  <g>
    <rect x="96" y="512" width="180" height="54" rx="14" fill="#FFFFFF" stroke="#DDE5ED"/>
    <rect x="294" y="512" width="120" height="54" rx="14" fill="#FFFFFF" stroke="#DDE5ED"/>
    <rect x="432" y="512" width="320" height="54" rx="14" fill="#FFFFFF" stroke="#DDE5ED"/>
    <rect x="770" y="512" width="272" height="54" rx="14" fill="#FFFFFF" stroke="#DDE5ED"/>
    <rect x="96" y="590" width="460" height="54" rx="14" fill="#FFFFFF" stroke="#DDE5ED"/>
    <rect x="574" y="590" width="170" height="54" rx="14" fill="#FFFFFF" stroke="#DDE5ED"/>
    <rect x="762" y="590" width="280" height="54" rx="14" fill="#FFFFFF" stroke="#DDE5ED"/>
  </g>

  <g fill="#7A8BA0" font-family="Trebuchet MS, Segoe UI, sans-serif" font-size="14" font-weight="700">
    <text x="96" y="506">CEP</text>
    <text x="294" y="506">UF</text>
    <text x="432" y="506">CIDADE</text>
    <text x="770" y="506">BAIRRO</text>
    <text x="96" y="584">ENDERECO</text>
    <text x="574" y="584">NUMERO</text>
    <text x="762" y="584">COMPLEMENTO</text>
  </g>

  <g fill="#334257" font-family="Trebuchet MS, Segoe UI, sans-serif" font-size="16">
    <text x="116" y="545">08.311-135</text>
    <text x="314" y="545">SP</text>
    <text x="452" y="545">Sao Paulo</text>
    <text x="790" y="545">Parque Sao Rafael</text>
    <text x="116" y="623">Rua Morro Velho</text>
    <text x="594" y="623">41</text>
    <text x="782" y="623">Referencia: condominio fechado</text>
  </g>

  <text x="96" y="720" fill="#2A3850" font-family="Trebuchet MS, Segoe UI, sans-serif" font-size="22" font-weight="700">Contato</text>
  <g>
    <rect x="96" y="744" width="210" height="54" rx="14" fill="#FFFFFF" stroke="#DDE5ED"/>
    <rect x="324" y="744" width="210" height="54" rx="14" fill="#FFFFFF" stroke="#DDE5ED"/>
    <rect x="552" y="744" width="210" height="54" rx="14" fill="#FFFFFF" stroke="#DDE5ED"/>
    <rect x="780" y="744" width="262" height="54" rx="14" fill="#FFFFFF" stroke="#DDE5ED"/>
    <rect x="96" y="822" width="946" height="92" rx="18" fill="#FFFFFF" stroke="#DDE5ED"/>
  </g>

  <g fill="#7A8BA0" font-family="Trebuchet MS, Segoe UI, sans-serif" font-size="14" font-weight="700">
    <text x="96" y="738">FONE</text>
    <text x="324" y="738">CELULAR</text>
    <text x="552" y="738">EMAIL</text>
    <text x="780" y="738">EMAIL NFE</text>
    <text x="96" y="816">OBSERVACOES</text>
  </g>

  <g fill="#334257" font-family="Trebuchet MS, Segoe UI, sans-serif" font-size="16">
    <text x="116" y="777">(11) 99999-9999</text>
    <text x="344" y="777">(11) 98888-8888</text>
    <text x="572" y="777">cliente@email.com</text>
    <text x="800" y="777">financeiro@email.com</text>
    <text x="116" y="856">Observacoes gerais do cadastro, contato e detalhes complementares.</text>
  </g>
</svg>
